<?xml version="1.0" encoding="UTF-8"?>
<svg id="Layer_2" data-name="Layer 2" xmlns="http://www.w3.org/2000/svg" viewBox="0 0 245.95 325.98">
  <defs>
  </defs>
  <g id="BEER-ICONS-SET-by-RedKoala">
    <g id="ICONS">
      <g id="BIG_BIG_GLASS" data-name="BIG BIG GLASS">
        <path id="glass" class="cls-1" d="m205.26,134.99h-2.87v-14.77s0,0-.01,0v-52.07H2.58v63.48h0v177.61c0,3.5,2.4,6.55,5.8,7.38,1.57.38,39.05,9.35,93.84,9.35s92.75-8.96,94.34-9.35c3.42-.82,5.83-3.88,5.83-7.39v-66.83h2.87c22.81,0,40.69-13.41,40.69-30.53v-46.36c0-17.12-17.87-30.53-40.69-30.53Zm-103.04,175.8c-40.71,0-72.04-5.24-84.45-7.69v-147.77h0v-71.97h169.4v70.48h0v149.25c-12.5,2.45-44.11,7.7-84.97,7.7Zm128.53-98.9c0,8.17-11.91,15.34-25.49,15.34h-2.87v-77.04h2.87c13.58,0,25.49,7.17,25.49,15.34v46.36Z"/>
        <path id="foam" class="cls-1" d="m2.58,68.16h12.84c-.4-1.92-.61-3.98-.58-6.19.21-15.68,15.43-18.6,24.48-18.94,3.05-.12,5.76-2.09,6.74-4.91,3.87-11.19,20.61-23.71,37.23-23.71,13.27,0,25.22,5.78,31.19,15.09,1.12,1.76,2.97,2.96,5.08,3.3,2.05.33,4.25-.22,5.88-1.51,5.04-3.97,11.65-6.15,18.6-6.15,12.61,0,23.68,7.34,26.3,17.46.74,2.86,3.16,4.97,6.18,5.38,7.77,1.04,13.62,6.57,13.62,12.85,0,2.72-1.05,5.25-2.85,7.34h15.09v3.6c1.66-3.36,2.59-7.05,2.59-10.94,0-12.17-8.7-22.6-21.73-26.18-5.94-14.34-21.58-23.92-39.2-23.92-7.64,0-15.08,1.81-21.58,5.24C113.12,5.95,98.57,0,83.28,0c-19.49,0-40.97,12.67-49.33,28.97C12.92,31.28.25,43.49,0,61.78c-.07,5.5.8,10.57,2.57,15.09v-8.71Z"/>
        <path id="beer" class="cls-1" d="m175.27,118.74H55.01v81.57c0,3.25-2.63,5.88-5.88,5.88s-5.88-2.63-5.88-5.88v-81.57h-13.56v30.88h0v143.52c15.07,2.47,40.92,5.74,72.53,5.74s57.87-3.28,73.06-5.76V118.74h0Z"/>
      </g>
    </g>
  </g>
</svg>