<?xml version="1.0" encoding="UTF-8"?>
<svg id="Layer_2" data-name="Layer 2" xmlns="http://www.w3.org/2000/svg" viewBox="0 0 50 31.26">
  <defs>
  </defs>
  <g id="Layer_1-2" data-name="Layer 1">
    <g>
      <path class="cls-1" d="m37.97,6.87c1.9,0,3.43-1.54,3.43-3.43s-1.54-3.43-3.43-3.43-3.43,1.54-3.43,3.43,1.54,3.43,3.43,3.43Z"/>
      <path class="cls-1" d="m9.85,11.56C4.41,11.56,0,15.97,0,21.41s4.41,9.85,9.85,9.85,9.85-4.41,9.85-9.85-4.41-9.85-9.85-9.85Z"/>
      <path class="cls-1" d="m40.15,11.56c-2.39,0-4.59.85-6.29,2.27-.13-.44-.11-.91.08-1.35l.52-1.2c.81-1.85.54-4-.72-5.59h0c-1.02-1.3-2.58-2.07-4.24-2.09l-12.69-.18c-2.16-.03-4,1.53-4.35,3.67v.08c-.27,1.62.43,3.24,1.79,4.16l4.4,2.96c1.35.91,2.19,2.39,2.3,4.01l.35,5.5c.07,1.18,1.06,2.11,2.24,2.11h0c1.25,0,2.26-1.02,2.25-2.27l-.05-5.66c-.02-2.04-.74-4-2.05-5.57l-.74-.89c-.4-.48-.06-1.2.56-1.2h5.65c.44,0,.75.43.61.85l-.45,1.33c-.48,1.41-.07,2.98,1.03,3.98l.84.78c-.58,1.26-.91,2.66-.91,4.13,0,5.44,4.41,9.85,9.85,9.85s9.85-4.41,9.85-9.85-4.41-9.85-9.85-9.85Z"/>
    </g>
  </g>
</svg>