<?xml version="1.0" encoding="UTF-8"?>
<svg id="Layer_1" data-name="Layer 1" xmlns="http://www.w3.org/2000/svg" viewBox="0 0 1400 1224.99">
  <defs>
    <style>
      .cls-1 {
        stroke-width: 0px;
        fill: #ffffff;
        stroke: #ffffff;
      }
    </style>
  </defs>
  <circle class="cls-1" cx="1093.62" cy="1137.49" r="87.5"/>
  <circle class="cls-1" cx="557.68" cy="1137.49" r="87.5" transform="translate(-646.81 1530.04) rotate(-81.93)"/>
  <path class="cls-1" d="m1390.72,191.83c-8.29-10.64-21.02-16.83-34.48-16.83H329.35l-35.32-141.82C289.17,13.68,271.67,0,251.58,0H43.75C19.59,0,0,19.59,0,43.75s19.59,43.75,43.75,43.75h173.64l220.6,885.57c4.85,19.49,22.37,33.18,42.46,33.18h710.99c24.16,0,43.75-19.59,43.75-43.75s-19.59-43.75-43.75-43.75h-676.8l-32.7-131.25h743.05c20.07,0,37.58-13.66,42.45-33.13l131.26-525c3.26-13.07.32-26.93-7.98-37.53Zm-134.26,245.67h-151.46l21.88-175h173.33l-43.75,175Zm-386.98,262.5v-175h136.4l-21.88,175h-114.52Zm-202.03,0l-21.88-175h136.41v175h-114.53Zm-88.17,0h-118.65l-43.75-175h140.52l21.88,175Zm55.36-262.5l-21.88-175h169.22v175h-147.35Zm234.85,0v-175h169.21l-21.88,175h-147.33Zm-344.89-175l21.88,175h-151.46l-43.75-175h173.33Zm666.23,437.5h-118.63l21.88-175h140.51l-43.75,175Z"/>
</svg>