<?xml version="1.0" encoding="UTF-8"?>
<svg id="Layer_2" data-name="Layer 2" xmlns="http://www.w3.org/2000/svg" viewBox="0 0 160.96 200">
  <defs>
  </defs>
  <g id="Layer_1-2" data-name="Layer 1">
    <g>
      <path class="cls-1" d="m90.29,189.17h0c3.52-2.84,4.8-7.64,3.17-11.86l-18-46.37c-3.5-9.01-10.38-16.3-19.18-20.31l-10.84-4.94c-.78-.36-1.01-1.36-.47-2.02l12.73-15.41c1.11-1.34,3.21-1.19,4.11.3l14.21,23.52c2.83,4.69,9.34,5.44,13.16,1.51h0c2.76-2.84,3.16-7.22.95-10.5l-19.7-29.34c-3.46-5.16-10.4-6.62-15.66-3.31l-12.27,7.75c-.99.62-2.2-.37-1.78-1.46l7.3-19.15c.49-1.28,1.77-2.08,3.14-1.95l43.56,4.12c4.1.39,7.7-2.73,7.89-6.85h0c.17-3.76-2.57-7.02-6.3-7.49l-36.53-4.65c-4.35-.55-8.59-1.78-12.56-3.63l-4.41-2.06c-4.7-2.19-10.19-1.92-14.61.77-7.62,4.64-18.65,13.81-22.95,29.69-6.87,25.32-6.96,40.21-.41,50.11,5.58,8.42,34.95,17.19,43.58,19.61,1.52.43,2.78,1.49,3.46,2.92l22.48,47.39c2.89,6.08,10.7,7.86,15.94,3.64Z"/>
      <path class="cls-1" d="m67.7,24.77c-4.71,7.63-14.72,10-22.35,5.28-7.63-4.71-10-14.72-5.28-22.35C44.78.08,54.78-2.29,62.41,2.42c7.63,4.71,10,14.72,5.28,22.35Z"/>
      <path class="cls-1" d="m88.26,139.19c1.82,6.92,3.28,13.93,4.37,21l3.56,23.14c.74,4.83-1.8,9.57-6.24,11.62l-2.6,1.2c-.95.44-1.88.93-2.77,1.46-1.13.67-.68,2.4.64,2.4h70.78l4.96-54.85-1.4-128.91-26.04-4.97c-3.44-.66-7.01-.15-10.14,1.43h0c-9.67,4.9-15.76,14.81-15.76,25.65v2.61c0,6.84-2.49,13.45-7,18.59h0c-5.93,6.75-7.66,16.22-4.51,24.64l2.59,6.92c2.4,6.42,1.04,13.65-3.53,18.75l-4.09,4.56c-4.51,5.03-6.19,11.99-4.47,18.53l1.64,6.23Z"/>
    </g>
  </g>
</svg>