<?xml version="1.0" encoding="UTF-8"?>
<svg id="Layer_1" data-name="Layer 1" xmlns="http://www.w3.org/2000/svg" viewBox="0 0 2560 2120">
  <path d="m1136.74,358.67c-178.09-82.08-389.61-125.47-611.74-125.47-114.36,0-226.52,11.6-333.38,34.48-21.6,4.62-35.35,25.89-30.74,47.49,4.63,21.6,25.82,35.42,47.5,30.73,101.35-21.7,207.89-32.71,316.62-32.71,210.64,0,410.61,40.85,578.26,118.12,5.41,2.5,11.11,3.68,16.72,3.68,15.12,0,29.59-8.62,36.35-23.26,9.24-20.07.49-43.83-19.59-53.08Z"/>
  <path d="m1136.74,558.67c-178.09-82.08-389.61-125.47-611.74-125.47-114.36,0-226.52,11.6-333.38,34.48-21.6,4.62-35.35,25.89-30.74,47.49,4.63,21.61,25.82,35.39,47.5,30.73,101.35-21.7,207.89-32.71,316.62-32.71,210.64,0,410.61,40.85,578.26,118.12,5.41,2.5,11.11,3.68,16.72,3.68,15.12,0,29.59-8.62,36.35-23.26,9.24-20.07.49-43.83-19.59-53.08Z"/>
  <path d="m1136.74,758.67c-178.09-82.08-389.61-125.47-611.74-125.47-114.36,0-226.52,11.6-333.38,34.48-21.6,4.62-35.35,25.89-30.74,47.49,4.63,21.6,25.82,35.36,47.5,30.73,101.35-21.7,207.89-32.71,316.62-32.71,210.64,0,410.61,40.85,578.26,118.12,5.41,2.5,11.11,3.68,16.72,3.68,15.12,0,29.59-8.62,36.35-23.26,9.24-20.07.49-43.83-19.59-53.08Z"/>
  <path d="m1136.74,958.67c-178.09-82.08-389.61-125.47-611.74-125.47-114.36,0-226.52,11.6-333.38,34.48-21.6,4.62-35.35,25.89-30.74,47.49,4.63,21.6,25.82,35.4,47.5,30.73,101.35-21.7,207.89-32.71,316.62-32.71,210.64,0,410.61,40.85,578.26,118.12,5.41,2.5,11.11,3.68,16.72,3.68,15.12,0,29.59-8.62,36.35-23.26,9.24-20.07.49-43.83-19.59-53.08Z"/>
  <path d="m1136.74,1158.67c-178.09-82.08-389.61-125.47-611.74-125.47-114.36,0-226.52,11.6-333.38,34.48-21.6,4.62-35.35,25.89-30.74,47.49,4.63,21.6,25.82,35.37,47.5,30.73,101.35-21.7,207.89-32.71,316.62-32.71,210.64,0,410.61,40.85,578.26,118.12,5.41,2.5,11.11,3.68,16.72,3.68,15.12,0,29.59-8.62,36.35-23.26,9.24-20.07.49-43.83-19.59-53.08Z"/>
  <path d="m1136.74,1358.67c-178.09-82.08-389.61-125.47-611.74-125.47-114.36,0-226.52,11.6-333.38,34.48-21.6,4.62-35.35,25.89-30.74,47.49,4.63,21.6,25.82,35.42,47.5,30.73,101.35-21.7,207.89-32.71,316.62-32.71,210.64,0,410.61,40.85,578.26,118.12,5.41,2.5,11.11,3.68,16.72,3.68,15.12,0,29.59-8.62,36.35-23.26,9.24-20.07.49-43.83-19.59-53.08Z"/>
  <path d="m1136.74,1558.67c-178.09-82.08-389.61-125.47-611.74-125.47-114.36,0-226.52,11.6-333.38,34.48-21.6,4.62-35.35,25.89-30.74,47.49,4.63,21.6,25.82,35.39,47.5,30.73,101.35-21.7,207.89-32.71,316.62-32.71,210.64,0,410.61,40.85,578.26,118.12,5.41,2.5,11.11,3.68,16.72,3.68,15.12,0,29.59-8.62,36.35-23.26,9.24-20.07.49-43.83-19.59-53.08Z"/>
  <path d="m2474.16,61.16C2336.35,20.58,2188.59,0,2035,0c-286.31,0-559.49,74.44-755,205C1084.49,74.44,811.31,0,525,0,371.41,0,223.65,20.58,85.84,61.16,35.29,76.04,0,123.42,0,176.35v1510.95c0,37.01,16.66,71.34,45.72,94.17,29.22,22.94,66.76,31.05,102.93,22.24,119.1-28.99,245.72-43.7,376.35-43.7,264.02,0,510.53,59.99,694.1,168.92,18.79,11.14,39.84,16.71,60.9,16.71s42.11-5.57,60.9-16.71c37.2-22.08,77.11-42.03,119.1-59.99v-86.4c-49.33,19.48-96.25,41.45-140,66.07v-598.31c-29.86-27.66-56.71-58.44-80-91.95v690.27c-193.36-108.85-446.17-168.59-715-168.59-136.99,0-269.98,15.47-395.27,45.97-12.19,2.97-24.8.25-34.57-7.41-5.66-4.44-15.16-14.41-15.16-31.26V176.35c0-17.71,11.7-33.52,28.46-38.45,130.45-38.42,270.61-57.9,416.54-57.9,273.09,0,532.23,70.69,715,194.5v246.67c23.3-33.51,50.13-64.38,80-92.03v-154.64c182.77-123.81,441.91-194.5,715-194.5,145.94,0,286.09,19.48,416.54,57.9,16.76,4.93,28.46,20.74,28.46,38.45v1510.95c0,16.85-9.49,26.82-15.16,31.26-9.77,7.7-22.32,10.38-34.59,7.41-125.27-30.5-258.26-45.97-395.25-45.97-31.92,0-63.6.9-95,2.57v80.09c31.36-1.74,63.04-2.66,95-2.66,130.62,0,257.25,14.71,376.33,43.7,36.31,8.83,73.75.7,102.95-22.24,29.06-22.83,45.72-57.16,45.72-94.17V176.35c0-52.93-35.29-100.3-85.84-115.19Z"/>
  <path d="m1403.67,1611.75c6.76,14.64,21.23,23.26,36.35,23.26,5.61,0,11.31-1.18,16.72-3.68,1.06-.49,2.2-.89,3.26-1.38v-69.95c0-5.86.39-11.63,1.01-17.33-12.61,5.3-25.44,10.33-37.74,16-20.08,9.25-28.83,33.01-19.59,53.08Z"/>
  <path d="m2351.62,1545.91c21.66,4.66,42.89-9.13,47.5-30.73,4.61-21.6-9.14-42.87-30.74-47.49-106.86-22.88-219.02-34.48-333.38-34.48-50.53,0-100.4,2.54-149.56,6.97,22.84,20.12,39.88,46.54,48.37,76.61,33.44-2.12,67.11-3.58,101.2-3.58,108.73,0,215.27,11.01,316.62,32.71Z"/>
  <path d="m1423.26,1358.67c-20.08,9.25-28.83,33.01-19.59,53.08,6.76,14.64,21.23,23.26,36.35,23.26,5.61,0,11.31-1.18,16.72-3.68,20.6-9.5,41.72-18.42,63.26-26.8v-34.37c-21.49-7.32-42.19-16.26-62.42-26.03-11.44,4.85-23.13,9.39-34.32,14.55Z"/>
  <path d="m2368.38,1267.69c-87.56-18.75-178.79-29.49-271.76-32.91-29.9,30.02-63.17,56.68-99.19,79.35,12.53-.29,24.96-.91,37.57-.91,108.73,0,215.27,11.01,316.62,32.71,21.66,4.69,42.89-9.13,47.5-30.73,4.61-21.6-9.14-42.87-30.74-47.49Z"/>
  <path d="m2368.38,1067.69c-48.07-10.29-97.34-17.96-147.27-23.66-10.44,26.55-22.84,52.07-37.04,76.47,57.01,5.44,113.07,13.75,167.55,25.41,21.66,4.64,42.89-9.13,47.5-30.73,4.61-21.6-9.14-42.87-30.74-47.49Z"/>
  <path d="m2368.38,867.69c-35.64-7.63-72.04-13.53-108.74-18.64-.43,27.08-2.56,53.75-6.73,79.77,33.32,4.74,66.36,10.17,98.72,17.1,21.66,4.67,42.89-9.13,47.5-30.73,4.61-21.6-9.14-42.87-30.74-47.49Z"/>
  <path d="m2368.38,467.69c-91.01-19.49-185.99-30.27-282.77-33.19,26.83,25.52,51.12,53.65,72.49,84,65.97,5.16,130.82,13.99,193.52,27.41,21.66,4.66,42.89-9.12,47.5-30.73,4.61-21.6-9.14-42.87-30.74-47.49Z"/>
  <path d="m2368.38,267.69c-106.86-22.88-219.02-34.48-333.38-34.48-140.66,0-276.99,17.51-403.34,51.12,22.42-2.74,45.19-4.32,68.34-4.32,72.25,0,141.27,13.9,204.73,38.93,42.88-3.53,86.26-5.72,130.27-5.72,108.73,0,215.27,11.01,316.62,32.71,21.66,4.69,42.89-9.13,47.5-30.73,4.61-21.6-9.14-42.87-30.74-47.49Z"/>
  <path d="m1700,520c-96.31,0-182.61,42.96-241.33,110.51,100.11-45.91,211.78-78.62,330.21-97.69-28.26-8.19-58.02-12.82-88.89-12.82Z"/>
  <path d="m1440.02,835.01c5.61,0,11.31-1.18,16.72-3.68,156.74-72.25,341.87-112.18,537.42-117.13-12.25-28.54-28.52-54.95-48.12-78.51-189.42,10.03-368.65,51.94-522.77,122.98-20.08,9.25-28.83,33.01-19.59,53.08,6.76,14.64,21.23,23.26,36.35,23.26Z"/>
  <path d="m2020,840c0-2.17-.28-4.27-.33-6.42-216.49,1.96-422.45,44.91-596.41,125.09-6.17,2.84-11.12,7.16-14.96,12.22,10.23,22.69,23.06,43.91,38.05,63.44,3.51-.57,7.01-1.44,10.38-3,161.26-74.33,352.53-114.55,554.33-117.54,5.63-23.73,8.93-48.35,8.93-73.78Z"/>
  <path d="m1952.99,1035.21c-147.64,7.19-288.87,34.23-417.34,78.85,38.89,23.41,82.95,39.03,130.24,44.07,57.51-14.65,117.32-25.5,178.63-33,42.53-21.65,79.5-52.46,108.47-89.91Z"/>
  <path d="m1800,1482.83v-173.33c217.09-46.02,380-238.7,380-469.49,0-265.1-214.9-480-480-480s-480,214.9-480,480c0,230.8,162.91,423.48,380,469.49v173.33c-34.44,8.92-60,39.94-60,77.17v480c0,44.18,35.82,80,80,80h160c44.18,0,80-35.82,80-80v-480c0-37.24-25.56-68.25-60-77.17Zm-500-642.83c0-220.56,179.44-400,400-400s400,179.44,400,400-179.44,400-400,400-400-179.44-400-400Zm420,480v160h-40v-160h40Zm60,720h-160v-480h160v480Z"/>
</svg>