<?xml version="1.0" encoding="UTF-8"?>
<svg id="_ëÎÓÈ_1" data-name="ëÎÓÈ 1" xmlns="http://www.w3.org/2000/svg" viewBox="0 0 2000 2000">
  <defs>
    <style>
      .cls-1 {
        fill: #fff;
      }

      .cls-2 {
        fill: #1b3753;
      }
    </style>
  </defs>
  <rect class="cls-1" width="2000" height="2000"/>
  <g>
    <path class="cls-2" d="m595.63,752.08v604.84c0,28.18,22.87,51.05,51.05,51.05h38.72v-706.95h-38.72c-28.18,0-51.05,22.87-51.05,51.05Z"/>
    <path class="cls-2" d="m1088.76,1269.18c-136.3,0-247.23-110.93-247.23-247.23s110.93-247.15,247.23-247.15,247.15,110.85,247.15,247.15c0,43.4-11.24,85.4-32.71,122.72l82.2,63.78v-526.85c0-34.74-28.18-62.92-63-62.92h-534.97c-34.82,0-63,28.18-63,62.92v745.82c0,34.74,28.18,62.92,63,62.92h534.97c34.82,0,63-28.18,63-62.92v-67.06l-146.21-142.39c-43.09,33.18-95.71,51.21-150.43,51.21Z"/>
    <path class="cls-2" d="m466.82,822.57v463.85c0,21.62,17.56,39.19,39.19,39.19h50.59v-542.23h-50.59c-21.62,0-39.19,17.56-39.19,39.19Z"/>
    <path class="cls-2" d="m1555.27,1369.88l-169.87-131.77-113.35-87.98c25.45-36.38,40.44-80.48,40.44-128.18,0-123.34-100.39-223.73-223.73-223.73s-223.81,100.39-223.81,223.73,100.39,223.81,223.81,223.81c58.39,0,111.63-22.56,151.52-59.33l145.12,141.3,111.79,108.82c8.66,8.43,19.75,12.57,30.91,12.57,12.33,0,24.59-5.15,33.41-15.22,16.71-19.2,13.82-48.48-6.24-64.01Zm-466.51-165.42c-100.62,0-182.51-81.89-182.51-182.51s81.89-182.44,182.51-182.44,182.43,81.89,182.43,182.44-81.89,182.51-182.43,182.51Z"/>
    <rect class="cls-2" x="981.81" y="969.32" width="42.08" height="138.52"/>
    <rect class="cls-2" x="1067.68" y="891.24" width="42.08" height="216.59"/>
    <rect class="cls-2" x="1153.55" y="969.32" width="42.08" height="138.52"/>
  </g>
</svg>