<?xml version="1.0" encoding="UTF-8"?>
<svg id="Layer_2" data-name="Layer 2" xmlns="http://www.w3.org/2000/svg" viewBox="0 0 50 49.05">
  <defs>
    <style>
      .cls-1 {
        fill: #414042;
      }
    </style>
  </defs>
  <g id="Layer_1-2" data-name="Layer 1">
    <g>
      <path class="cls-1" d="m39.79,9.19c2.54,0,4.6-2.06,4.6-4.6s-2.06-4.6-4.6-4.6-4.6,2.06-4.6,4.6,2.06,4.6,4.6,4.6Z"/>
      <path class="cls-1" d="m47.29,43.37l-2.51,1.67c-.26.17-.56.26-.87.26h-16.86c.47-.43.81-1.02.92-1.7l1.84-11.27c.35-2.12-.49-4.25-2.19-5.57l-3.29-2.55c-1.05-.82-.94-2.44.22-3.1l.21-.12,8.2,1.23c1.21,1.58,3.06,2.6,5.12,2.71l4.07.22c1.46.08,2.69-1.09,2.69-2.55,0-1.31-.99-2.4-2.29-2.54l-2.64-.28c-1.47-.16-2.68-1.25-2.98-2.7l-.34-1.64c-.17-.82-.25-1.66-.26-2.49v-1.34c0-1.52-.81-2.92-2.12-3.67-1.63-.94-3.65-.9-5.24.12l-12.53,8.06c-.73.47-1.36,1.07-1.87,1.75l-10.36-1.56.25-1.78c.04-.3-.17-.58-.47-.62-.3-.04-.58.17-.62.47l-.25,1.77-2.25-.34c-.43-.06-.83.23-.89.66-.06.43.23.82.66.89l2.26.34-.25,1.76c-.04.3.17.58.47.62.3.04.58-.17.62-.47l.24-1.75,9.74,1.46c-.27.63-.46,1.3-.54,1.99-.36,3,1.18,5.91,3.87,7.29l4.95,2.54c.89.46,1.4,1.42,1.27,2.41l-1.18,9.18c-.13.99.25,1.93.94,2.56H2.35c-1.04,0-1.87.84-1.87,1.87s.84,1.87,1.87,1.87h41.59c.6,0,1.18-.17,1.68-.49l3.57-2.28c.5-.32.81-.87.81-1.47,0-1.39-1.55-2.22-2.71-1.45Zm-18.35-24.73c1.05-.59,2.38-.09,2.78,1.05l.21.61c.02.07.05.14.08.21l-5.03-.76,1.96-1.11Z"/>
    </g>
  </g>
</svg>