<?xml version="1.0" encoding="UTF-8"?>
<svg id="Layer_2" data-name="Layer 2" xmlns="http://www.w3.org/2000/svg" viewBox="0 0 182.05 183.98">
  <g id="_ÎÓÈ_1" data-name="—ÎÓÈ_1">
    <path class="cls-1" d="m119.94,174.78c-42.27,5.09-58.21-40.55-100.73-27.27-1.37.43-1.85,2.11-.93,3.2,17.78,21.15,43.82,33.28,71.43,33.28,10.69,0,21.16-1.79,31.14-5.33.96-.34,1.51-1.35,1.28-2.34-.23-.99-1.17-1.65-2.19-1.53Zm-96.55-24.3c33.32-8.31,49.54,23.45,81.93,28.14-30.3,5.35-61.21-5.16-81.93-28.14Zm158.44-73.78C175.91,28.8,136.67,8.49,124.79,3.41c-27.8-11.89-39.26,10.25-29.16,21.67-14.64,6.66-10.58,29.79,5.71,29.79-2.51,9.94,5.19,18.62,15.44,18.62,6.75,0,9.09-3.56,15.79-7.47,14.12,7.03,14.84,28.69,2.85,36.77-5.4,3.64-12.51,4.1-19.52,1.28-24.7-11.14-47.14-32.55-71.2-33.13-24.34-.58-48.73,17.09-44.14,47.34.3,2,2.66,2.44,3.67.97,10.85-15.81,25.69-24.2,41.82-23.64,28.57.99,55.57,30.91,87.05,30.91,22.09,0,40.67-13.95,47.21-34.99,2.78-7.62,1.36-16.08,1.52-14.81Zm-65.05-7.22c-8.41,0-14.67-7.6-10.7-16.04.69-1.47-.57-3.11-2.16-2.82-15.15,2.7-18.66-19.41-3.92-22.82,1.7-.39,2.11-2.64.66-3.61-10.73-7.2-2.86-27.98,22.56-17.11,10.02,4.29,40.33,19.86,51.32,54.72-11.68-11.45-32.74-7.67-43.16.27-7.41,4.14-9.09,7.41-14.6,7.41Zm16.32,53.03c-30.08,0-57.18-29.88-86.91-30.91-16.89-.59-31.46,7.71-42.15,21.17-1.02-24.6,19.98-38.34,40.56-37.84,26.98.66,53.47,30.5,84.22,37.9,13.84,3.33,27.13,1.44,38-5.28-8.37,9.43-20.35,14.97-33.73,14.97Zm35.67-21.22c-13.15,10.47-27.75,10.15-38.01,7.87,20.57-5.22,22.67-34.83,5.61-45.61,11.43-6.66,32.97-8.86,40,8.07,2.51,6.05,1.92,13.81.16,18.62-1.56,4.47-4.17,8.18-7.76,11.05Zm8.23,17.53c-.84-.47-1.91-.27-2.52.48-10.16,12.42-21.95,17.72-39.4,17.72-31.39,0-61.52-27.75-86.12-27.75s-34.65,15.49-39.65,27.13c-.75,1.74,1.14,3.45,2.8,2.55,6.35-3.46,22.17-8.68,36.59-3.64,7.62,2.67,15.44,6.84,23.71,11.25,16.38,8.73,32.2,17.1,50.18,17.1,25.5-.15,46.18-16.02,55.33-42.44.32-.92-.07-1.93-.91-2.4Zm-54.7,40.84c-16.81,0-32.68-8.46-48.02-16.64-18.96-10.11-27.01-13.84-38.66-13.84-7.77,0-15,1.83-20.33,3.9,5.29-10.05,14.33-19.82,33.66-19.82,23.12,0,53.82,27.75,86.12,27.75,14.42,0,25.56-3.59,34.91-11.43-10.21,19.63-27.87,30.08-47.69,30.08ZM51.13,37.28c6.7,0,12.16-5.45,12.16-12.16s-5.45-12.16-12.16-12.16-12.16,5.45-12.16,12.16,5.45,12.16,12.16,12.16Zm0-20.31c4.5,0,8.16,3.66,8.16,8.16s-3.66,8.16-8.16,8.16-8.16-3.66-8.16-8.16,3.66-8.16,8.16-8.16Zm-21.25,42.33c4.28,0,7.75-3.48,7.75-7.75s-3.48-7.75-7.75-7.75-7.75,3.48-7.75,7.75,3.48,7.75,7.75,7.75Zm0-11.51c2.07,0,3.75,1.68,3.75,3.75s-1.68,3.75-3.75,3.75-3.75-1.68-3.75-3.75,1.68-3.75,3.75-3.75Zm28.95,2.21c0,3.65,2.97,6.62,6.62,6.62s6.62-2.97,6.62-6.62-2.97-6.62-6.62-6.62-6.62,2.97-6.62,6.62Zm6.62-2.62c1.45,0,2.62,1.18,2.62,2.62s-1.18,2.62-2.62,2.62-2.62-1.18-2.62-2.62,1.18-2.62,2.62-2.62Zm25.14,18.23c0-1.26-1.03-2.29-2.29-2.29s-2.29,1.03-2.29,2.29,1.03,2.29,2.29,2.29,2.29-1.03,2.29-2.29Zm-11.29-39.52c1.26,0,2.29-1.03,2.29-2.29s-1.03-2.29-2.29-2.29-2.29,1.03-2.29,2.29,1.03,2.29,2.29,2.29Z"/>
  </g>
</svg>