<?xml version="1.0" standalone="no"?>
<!DOCTYPE svg PUBLIC "-//W3C//DTD SVG 20010904//EN"
 "http://www.w3.org/TR/2001/REC-SVG-20010904/DTD/svg10.dtd">
<svg version="1.0" xmlns="http://www.w3.org/2000/svg"
 width="200.000000pt" height="112.000000pt" viewBox="0 0 200.000000 112.000000"
 preserveAspectRatio="xMidYMid meet">

<g transform="translate(0.000000,112.000000) scale(0.100000,-0.100000)"
fill="#000000" stroke="none">
<path d="M0 560 l0 -560 1000 0 1000 0 0 560 0 560 -189 0 -189 0 -22 -35
c-15 -25 -21 -48 -19 -79 3 -42 -1 -49 -49 -100 -29 -30 -52 -59 -52 -63 0 -5
-14 -23 -30 -42 -43 -46 -72 -109 -76 -160 -2 -25 -9 -48 -16 -53 -10 -6 -10
-8 1 -8 10 0 11 -3 2 -14 -13 -16 -51 -28 -51 -16 0 13 -47 3 -69 -16 -12 -11
-21 -30 -21 -46 0 -25 -3 -28 -32 -27 -27 0 -30 2 -13 9 18 7 19 8 2 15 -9 4
-33 5 -52 3 -19 -2 -35 0 -35 5 0 5 -7 7 -15 4 -8 -4 -17 -3 -19 2 -3 4 -23 7
-46 5 -29 -2 -40 2 -40 12 0 17 -12 18 -27 3 -7 -7 -16 -5 -28 8 -10 10 -20
17 -22 16 -9 -8 -23 -1 -17 8 4 8 9 7 15 -2 7 -12 9 -11 9 1 1 11 4 10 16 -5
16 -20 16 -20 9 3 -3 12 -7 61 -7 109 0 95 -19 159 -44 149 -15 -6 -64 37 -64
56 0 5 -9 8 -19 6 -10 -2 -29 6 -40 17 -18 16 -25 17 -42 7 -10 -7 -19 -8 -19
-4 0 14 -51 37 -73 34 -14 -3 -18 1 -14 11 4 10 -10 28 -40 51 -35 28 -52 34
-71 29 -21 -5 -31 1 -61 35 -20 23 -43 43 -51 44 -8 2 -20 10 -26 18 -10 12
-14 12 -28 1 -11 -9 -16 -10 -16 -2 0 8 -47 11 -155 11 l-155 0 0 -560z m466
381 c-1 -31 -16 -33 -16 -2 0 15 8 31 15 31 1 0 2 -13 1 -29z m114 -17 c0 -8
-5 -12 -10 -9 -6 4 -8 11 -5 16 9 14 15 11 15 -7z m-5 -43 c3 -5 1 -12 -5 -16
-5 -3 -10 1 -10 9 0 18 6 21 15 7z m55 -22 c0 -5 -4 -9 -8 -9 -5 0 -9 7 -9 15
0 8 4 12 9 9 4 -3 8 -9 8 -15z m-12 -47 c6 -18 -15 -14 -22 4 -4 10 -1 14 6
12 6 -2 14 -10 16 -16z m87 -43 c0 -27 -4 -48 -9 -46 -8 3 -10 30 -7 94 2 39
16 -3 16 -48z m105 -6 c-7 -21 -16 -42 -21 -47 -4 -5 -1 14 8 42 9 29 19 50
21 47 2 -2 -1 -21 -8 -42z m-30 -97 c0 -8 -4 -17 -9 -21 -6 -3 -9 4 -8 15 1
23 17 28 17 6z m127 -73 c-3 -10 -5 -4 -5 12 0 17 2 24 5 18 2 -7 2 -21 0 -30z
m-64 -24 c-5 -5 -8 3 -7 19 2 37 6 42 11 13 3 -13 1 -27 -4 -32z m304 -105
c-3 -3 -12 -4 -19 -1 -8 3 -5 6 6 6 11 1 17 -2 13 -5z m-140 -11 c-20 -2 -52
-2 -70 0 -17 2 0 4 38 4 39 0 53 -2 32 -4z m869 -10 c-4 -4 13 -15 36 -24 24
-10 35 -18 26 -18 -14 -1 -61 15 -77 25 -5 4 9 24 16 24 4 0 3 -3 -1 -7z
m-651 -13 c-12 -20 7 -51 46 -75 41 -26 50 -30 48 -17 -3 19 3 22 22 11 14 -7
19 -17 16 -30 -3 -10 -1 -19 4 -19 5 0 9 -16 9 -35 0 -47 27 -115 56 -142 13
-12 24 -28 24 -34 0 -7 7 -20 16 -30 19 -21 -118 25 -270 90 -55 24 -123 51
-152 62 -28 11 -68 28 -89 38 -37 18 -37 19 -39 78 0 34 2 59 7 56 4 -2 7 1 7
7 0 7 7 10 15 6 8 -3 18 0 22 7 5 7 15 13 23 13 29 3 84 15 89 20 10 9 152 4
146 -6z m-569 -114 c-2 -14 3 -27 11 -30 9 -4 11 -2 7 6 -5 8 -2 9 12 3 50
-21 121 -44 139 -45 15 -1 12 -5 -15 -20 -19 -11 -46 -19 -60 -18 -17 0 -19 2
-7 5 9 2 15 9 12 14 -4 5 -2 9 4 9 5 0 11 -5 13 -11 2 -7 9 -5 17 5 12 14 10
16 -11 16 -20 0 -112 -38 -98 -41 36 -5 55 -11 59 -16 6 -5 -11 -3 -94 14 -22
5 -59 6 -82 3 -33 -5 -40 -4 -36 8 4 10 -1 13 -18 12 -49 -4 -90 0 -84 9 3 5
1 12 -5 16 -5 3 -10 2 -10 -3 0 -5 -12 -9 -26 -9 -16 0 -21 2 -14 7 9 5 9 9 1
14 -6 4 -16 4 -21 1 -6 -3 -13 0 -16 9 -3 8 -12 12 -20 9 -8 -3 -14 0 -14 6 0
7 -11 9 -27 6 l-28 -5 25 11 c41 19 179 37 287 38 l101 1 -2 -24z m251 2 c-3
-8 -6 -5 -6 6 -1 11 2 17 5 13 3 -3 4 -12 1 -19z m8 -88 c-4 -11 0 -29 9 -42
9 -12 16 -18 16 -12 0 5 9 10 20 11 29 2 25 -14 -5 -19 -14 -3 -30 1 -36 8
-10 12 -74 31 -91 26 -5 -1 -8 5 -8 12 0 13 5 13 35 0 34 -14 36 -14 45 11 11
30 24 34 15 5z m-30 0 c3 -5 -3 -10 -14 -10 -12 0 -21 5 -21 10 0 6 6 10 14
10 8 0 18 -4 21 -10z m-419 -17 c-10 -11 -37 -12 -30 -2 3 5 12 9 21 9 9 0 13
-3 9 -7z m39 -23 c-3 -5 -14 -10 -23 -10 -15 0 -15 2 -2 10 20 13 33 13 25 0z
m267 3 c-6 -2 -10 -9 -6 -14 3 -5 0 -9 -5 -9 -12 0 -14 13 -4 23 3 4 11 7 17
6 6 0 5 -3 -2 -6z m-128 -34 c-8 -14 14 -10 28 4 11 13 45 12 78 0 8 -4 19 -7
23 -7 4 -1 12 -7 16 -15 5 -8 14 -10 22 -6 8 5 11 5 7 0 -4 -4 0 -14 10 -22
16 -13 15 -14 -8 -9 -14 3 -35 6 -48 6 -13 0 -20 4 -17 10 9 14 -8 13 -23 -2
-8 -8 -15 -8 -27 2 -12 10 -15 10 -15 0 0 -8 -3 -10 -6 -7 -4 4 -1 13 6 22 7
9 11 18 8 20 -8 9 -38 -6 -32 -16 3 -5 -5 -9 -18 -9 -13 0 -30 -6 -38 -12 -12
-11 -12 -10 -1 4 7 9 10 26 6 37 -5 16 -2 18 14 14 12 -3 18 -9 15 -14z m-114
-10 c0 -14 -17 -10 -23 5 -4 10 -1 13 9 9 7 -3 14 -9 14 -14z m340 4 c0 21 10
21 36 3 13 -10 23 -11 31 -4 9 7 15 6 19 -6 3 -9 13 -16 21 -16 8 0 11 -5 8
-10 -4 -7 -13 -6 -27 1 -11 6 -44 9 -74 6 -30 -3 -54 -1 -54 4 0 5 5 9 11 9 6
0 8 8 5 18 -5 14 -4 14 9 -2 13 -17 15 -18 15 -3z m133 -10 c-7 -2 -19 -2 -25
0 -7 3 -2 5 12 5 14 0 19 -2 13 -5z m-333 -27 c0 -3 -4 -8 -10 -11 -5 -3 -10
-1 -10 4 0 6 5 11 10 11 6 0 10 -2 10 -4z"/>
<path d="M609 320 c-1 -5 -2 -16 -3 -22 -1 -7 -9 -12 -19 -12 -9 1 -17 -2 -17
-6 0 -5 19 -8 42 -8 39 0 40 1 22 15 -10 8 -18 21 -16 29 2 8 0 14 -3 14 -3 0
-6 -4 -6 -10z"/>
<path d="M518 273 c7 -3 16 -2 19 1 4 3 -2 6 -13 5 -11 0 -14 -3 -6 -6z"/>
<path d="M690 250 c0 -6 7 -10 15 -10 8 0 15 2 15 4 0 2 -7 6 -15 10 -8 3 -15
1 -15 -4z"/>
</g>
</svg>
