<?xml version="1.0" encoding="UTF-8"?>
<svg id="travel_suitcase" data-name="travel suitcase" xmlns="http://www.w3.org/2000/svg" viewBox="0 0 4000 4000">
  <defs>
    <style>
      .cls-1 {
        fill: #fff;
      }

      .cls-2 {
        fill: #305174;
      }

      .cls-3 {
        fill: #cc8d0e;
      }

      .cls-4 {
        fill: #daa21f;
      }

      .cls-5 {
        fill: #21181c;
      }

      .cls-6 {
        fill: #1d3d5b;
      }

      .cls-7 {
        fill: #3f3338;
      }

      .cls-8 {
        fill: #a39f98;
      }

      .cls-9 {
        fill: #a36902;
      }
    </style>
  </defs>
  <rect class="cls-1" width="4000" height="4000"/>
  <g>
    <g>
      <g>
        <rect class="cls-8" x="2016.26" y="890.06" width="84.69" height="1206.88"/>
        <rect class="cls-7" x="1749.83" y="577.75" width="619.61" height="115.28" rx="40.23" ry="40.23"/>
        <rect class="cls-7" x="2004.06" y="627.16" width="111.16" height="308.78" rx="39.09" ry="39.09"/>
      </g>
      <path class="cls-6" d="m1832.01,1516.43s-45.97-209.57,103.47-219.95c149.44-10.38,332.14-12.76,348.91,67.92,18.99,91.35,7.5,152.03,7.5,152.03,0,0-7.5-141.65-141.21-141.65s-267.09-10.95-281.84,34.03c-25.34,77.28-36.84,107.62-36.84,107.62Z"/>
      <path class="cls-6" d="m2738.24,2229.5s209.57-45.97,219.95,103.47c10.38,149.44,12.76,332.14-67.92,348.91-91.35,18.99-152.03,7.5-152.03,7.5,0,0,141.65-7.5,141.65-141.21s10.95-267.09-34.03-281.84c-77.28-25.34-107.62-36.84-107.62-36.84Z"/>
      <path class="cls-4" d="m2772.92,3513.2c-68.1,126.47-511.56,106.53-736.88,106.53-125.84,0-271.06,7.04-397.3-3.49-99.76-8.22-187.69-27.49-244.87-69.74-24.56-18.19-44.05-98.63-58.92-217.77-.62-4.56-1.18-9.12-1.75-13.8-61.74-515.93-43.6-1706.24,4.34-1785.05,40.95-67.37,107.25-113,292.92-123.93,191.52-11.27,983.92-59.6,1112.52,64.61,160.54,155.08,116.39,1882.07,29.93,2042.63Z"/>
      <path class="cls-2" d="m1393.07,3523.05s2.55,184.5,45.43,194.74c42.88,10.24,80.14-3.59,67.09-47.14-13.05-43.55-18.35-140.65,3.6-145.77s-116.11-1.84-116.11-1.84Z"/>
      <path class="cls-2" d="m2763.42,3527.86s-12.74,184.08-56.12,191.93c-43.38,7.86-79.82-8.02-64.38-50.78,15.44-42.76,26.09-139.42,4.47-145.74-21.63-6.32,116.04,4.59,116.04,4.59Z"/>
      <g>
        <circle class="cls-2" cx="1520.62" cy="3728.06" r="92.94"/>
        <path class="cls-5" d="m1520.62,3831.29c-56.93,0-103.24-46.31-103.24-103.24s46.31-103.24,103.24-103.24,103.24,46.31,103.24,103.24-46.31,103.24-103.24,103.24Zm0-185.89c-45.57,0-82.65,37.08-82.65,82.65s37.08,82.65,82.65,82.65,82.65-37.08,82.65-82.65-37.08-82.65-82.65-82.65Z"/>
      </g>
      <g>
        <circle class="cls-2" cx="2637.02" cy="3728.06" r="92.94"/>
        <path class="cls-5" d="m2637.02,3831.29c-56.92,0-103.24-46.31-103.24-103.24s46.31-103.24,103.24-103.24,103.24,46.31,103.24,103.24-46.31,103.24-103.24,103.24Zm0-185.89c-45.57,0-82.65,37.08-82.65,82.65s37.08,82.65,82.65,82.65,82.65-37.08,82.65-82.65-37.08-82.65-82.65-82.65Z"/>
      </g>
      <path class="cls-2" d="m1638.74,3616.23c-99.76-8.22-187.69-27.49-244.87-69.74-24.56-18.19-44.05-98.63-58.92-217.77,8.17-9.07,29.55-9.93,34.05-9.03,0,0,64.3-1,151.61,59.39,86.64,59.93,117.62,234.45,118.12,237.15Z"/>
      <path class="cls-2" d="m2508.14,3612.12c99.76-8.22,187.69-27.49,244.87-69.74,24.56-18.19,44.05-98.63,58.92-217.77-8.17-9.07-18.03-9.93-22.54-9.03,0,0-75.81-1-163.12,59.39-86.64,59.93-117.62,234.45-118.12,237.15Z"/>
      <path class="cls-3" d="m2058.53,1211.77h64.4c24.27,0,43.97,19.7,43.97,43.97v1118.36c0,24.27-19.7,43.97-43.97,43.97h-64.4c-24.27,0-43.97-19.7-43.97-43.97v-1118.36c0-24.27,19.7-43.97,43.97-43.97Z" transform="translate(3905.64 -275.8) rotate(90)"/>
      <rect class="cls-3" x="2014.56" y="1551.43" width="152.33" height="1206.29" rx="43.97" ry="43.97" transform="translate(4245.3 63.85) rotate(90)"/>
      <rect class="cls-3" x="2014.56" y="1891.08" width="152.33" height="1206.29" rx="43.97" ry="43.97" transform="translate(4584.95 403.51) rotate(90)"/>
      <rect class="cls-3" x="2014.56" y="2230.74" width="152.33" height="1206.29" rx="43.97" ry="43.97" transform="translate(4924.61 743.16) rotate(90)"/>
      <rect class="cls-3" x="2014.56" y="2673.32" width="152.33" height="1000.44" rx="40.04" ry="40.04" transform="translate(5264.26 1082.82) rotate(90)"/>
      <path class="cls-1" d="m1769.68,610.04c.21-.56.42-1.12.64-1.68.05-.12.1-.25.15-.37,0,0-.29.65-.12.28.15-.31.28-.63.42-.94.46-.99.97-1.97,1.53-2.91.24-.39.48-.78.74-1.16.15-.22.3-.43.45-.64.47-.67-.36.42.03-.04.64-.75,1.28-1.48,2-2.15.35-.32.71-.61,1.07-.92.5-.43-.61.41-.06.05.25-.16.48-.34.73-.51.83-.55,1.69-1.04,2.58-1.49.25-.12.5-.24.76-.36.12-.06.86-.38.34-.16-.51.22.33-.13.49-.19.28-.11.57-.21.85-.32,1.18-.42,2.37-.78,3.58-1.1,2.82-.75,5.69-1.29,8.57-1.75.82-.13,1.63-.25,2.45-.37,1.1-.16,1.39-.2,2.23-.3.34-.04.68-.08,1.03-.11,2.09-.16,4.19-.19,6.28-.25,8.67-.25,17.35-.38,26.03-.5,11.59-.16,23.18-.27,34.78-.32,10.79-.05,21.57-.06,32.36.07,1.13.01,2.26.03,3.39.05,2.01.03,3.72-1.73,3.72-3.72s-1.7-3.69-3.72-3.72c-10.7-.17-21.41-.17-32.12-.13-11.89.04-23.78.14-35.67.3-9.15.12-18.31.26-27.46.51-2.38.06-4.76.12-7.14.26-4.83.29-9.78,1.21-14.49,2.28-4.71,1.07-9.58,2.63-13.5,5.54-3.77,2.81-6.55,6.5-8.47,10.78-.59,1.32-1.14,2.67-1.64,4.03-.69,1.89.77,4.07,2.6,4.57,2.07.57,3.88-.7,4.57-2.6h0Z"/>
      <path class="cls-1" d="m2014.92,800.89v85.9c0,2.01,1.71,3.72,3.72,3.72s3.72-1.7,3.72-3.72v-85.9c0-2.01-1.71-3.72-3.72-3.72s-3.72,1.7-3.72,3.72h0Z"/>
      <path class="cls-1" d="m2024.83,977.64v272.57c0,4.78,7.43,4.79,7.43,0v-272.57c0-4.78-7.43-4.79-7.43,0h0Z"/>
    </g>
    <g>
      <path class="cls-8" d="m2040.25,373.3c-39.66-30.95-78.07-37.09-93.06-26.88-21.63,14.73-19.61,79.09-11.96,104.12,36.39,119.05,82.46,221.36,148.25,327.04,24.91,40.01,50.82,79.85,83.34,113.95,92.29,96.77,147.87,121.91,224.31,166.6,44.58,26.06,92.36,54.08,143.83,50,8.61-.68,17.75-2.56,23.78-8.75,10.16-10.42,7.03-27.48,2.8-41.4-21.62-71.1-54.25-138.84-96.38-200.06-27-39.23-57.78-75.68-87.83-112.63h0c-63-77.45-79.09-113.8-157.17-199.45-52.13-57.19-98.44-108.96-179.92-172.54Z"/>
      <path class="cls-8" d="m2379.18,971.96c-84.85-84.24-150.67-173.46-193.34-249.76-29.88-53.43-65.39-128.71-69.97-177.38-5.76-61.38,26.63-63.79,67.18-74.12,4.46-1.14,9.05-2.37,13.68-3.79,70.71-21.7,142.65-39.4,215.38-52.94,35.5-6.61,75.44-11.33,104.81,9.68,11.83,8.46,20.67,20.37,29.01,32.26,53.55,76.34,94.54,160.95,127.29,248.26,15.87,42.26,29.71,90.07,11.54,131.41-13.38,30.47-41.7,51.27-68.79,70.61-32.85,23.47-65.71,46.91-98.56,70.36-16.53,11.81-33.07,23.61-49.62,35.43-14.03,10.04-50.44-2.13-88.6-40.02Z"/>
      <path class="cls-4" d="m2379.18,971.96c-84.85-84.24-150.67-173.46-193.34-249.76-29.88-53.43-65.39-128.71-69.97-177.38-5.76-61.38,26.63-63.79,67.18-74.12,1.91,2.06,3.56,5.12,4.98,9.51,62.46,191.21,112.14,258.41,179.55,354.59,34.67,49.47,67.83,106.11,149.82,141.75-16.53,11.81-33.07,23.61-49.62,35.43-14.03,10.04-50.44-2.13-88.6-40.02Z"/>
      <path class="cls-1" d="m2498.42,426.42c-13.74-8.32-30.41-11.1-46.15-8.07-3.74.72-7.42,1.79-10.95,3.23-3.44,1.41-6.88,3.18-9.35,6.04-5.85,6.77-3.11,15.83-.97,23.55,8.37,30.2,26.22,56.77,46.98,79.88,21.83,24.3,47.26,44.88,71.81,66.29,25,21.81,49.15,44.83,67.51,72.68,17.73,26.89,30.37,57.01,37.08,88.52.82,3.83,1.54,7.68,2.18,11.54.33,1.98,2.78,3.09,4.57,2.6,2.1-.58,2.93-2.58,2.6-4.57-5.24-31.4-16.28-61.84-32.28-89.36-8.08-13.9-17.46-27.02-27.92-39.24-10.62-12.41-22.29-23.87-34.36-34.86-23.93-21.8-49.52-41.79-72.46-64.68-21.19-21.15-40.6-45.05-52.32-72.84-2.89-6.86-5.27-13.96-7.09-21.18-.84-3.33-2.14-7.22-1.27-10.66.75-2.94,3.5-4.69,6.06-5.97,6.44-3.21,14.07-4.57,21.2-4.74,7.38-.18,14.69,1.02,21.63,3.54,3.4,1.23,6.64,2.85,9.73,4.73,4.1,2.49,7.84-3.94,3.75-6.42h0Z"/>
      <path class="cls-1" d="m2551.31,1087.72c-16.37-21.71-39.53-36.18-63.46-48.31-25.26-12.81-51-24.78-77.25-35.41-24.75-10.03-49.91-18.98-74.88-28.46-24.03-9.13-47.85-18.85-70.69-30.69-24.15-12.53-47.04-27.41-67.92-44.88-2.78-2.32-5.52-4.69-8.23-7.1-1.5-1.33-3.78-1.48-5.26,0-1.36,1.36-1.51,3.92,0,5.26,20.88,18.51,43.77,34.62,68.21,48.09,22.71,12.52,46.58,22.78,70.72,32.19,24.53,9.56,49.36,18.32,73.88,27.92,12.99,5.08,25.9,10.39,38.63,16.08,12.8,5.72,25.41,11.87,38.02,17.98,23.73,11.51,47.84,24.08,65.79,43.87,2.1,2.32,4.12,4.72,6,7.22,1.21,1.6,3.21,2.43,5.09,1.33,1.58-.92,2.55-3.47,1.33-5.09h0Z"/>
      <path class="cls-6" d="m2179.94,488.3c-14.09,32.26-28.19,64.52-42.28,96.77-1.14,2.6.18,5.44,3.21,5.59,25.04,1.26,50.08,2.52,75.12,3.77-.88-2.11-1.75-4.23-2.63-6.35-16.94,18.22-30.9,39.17-40.97,61.92-1.21,2.73-2.37,5.48-3.47,8.25-1.16,2.91-2.56,5.92-3.01,9.03-.91,6.24,3.4,10.25,9.07,11.66,6.63,1.65,13.59,2.45,20.32,3.63,7.09,1.24,14.18,2.49,21.26,3.73,15.86,2.78,31.73,5.57,47.59,8.35-.74-1.82-1.48-3.64-2.22-5.46-12.41,21.48-23.24,43.84-32.45,66.87-1.98,4.94-5.8,11.38-4.17,16.84,1.68,5.66,8.15,6.89,13.23,7.24,12.34.86,24.38-3.67,36.69-3.99,13.13-.34,26.28,2.37,38.17,7.95-.44-1.7-.89-3.39-1.33-5.09-6.49,14.39-11.99,29.2-16.33,44.37-2.12,7.43-3.97,14.94-5.54,22.5-1.32,6.33-3.54,14.81,3.97,18.15,2.95,1.31,6.36,1.43,9.52,1.87,4.39.61,8.78,1.22,13.17,1.83,8.11,1.13,16.21,2.25,24.32,3.38,8.44,1.17,16.89,2.35,25.33,3.52.92.13,1.86.21,2.76.4.25.05.49.1.74.15.59.2.64.2.16,0,.41,1.07-.48,3.53-.64,4.6-.67,4.43-1.34,8.86-2.01,13.29-2.83,18.74-5.66,37.48-8.49,56.22-.36,2.37.95,4.67,3.58,4.7,23.18.33,46.37.66,69.55.99,11.51.16,23.01.33,34.52.49,2.75.04,5.5.06,8.24.12,1.69.04,4.42-.21,4.76,1.98.24,1.58-.57,3.56-1.16,4.99-1.15,2.77-2.54,5.46-3.8,8.17-5.54,11.88-11.08,23.76-16.62,35.63-2.01,4.31,4.4,8.09,6.42,3.75,5.39-11.57,10.79-23.13,16.18-34.7,3.49-7.48,12.57-23.22-.78-26.75-2.43-.64-5.07-.51-7.57-.55-3.26-.05-6.53-.09-9.79-.14l-19.06-.27c-12.54-.18-25.07-.36-37.61-.54-14.43-.21-28.85-.41-43.28-.62l3.58,4.7c2.52-16.7,5.04-33.39,7.56-50.09,1.22-8.08,2.63-16.15,3.65-24.25.4-3.18-.24-6.26-3.17-8.01-3.26-1.95-8.18-1.78-11.84-2.29-16.21-2.25-32.43-4.5-48.64-6.76-4.05-.56-8.11-1.12-12.16-1.69-2.77-.39-5.64-.2-5.46-3.61.19-3.49,1.27-7.08,2.02-10.48.83-3.77,1.73-7.53,2.7-11.27,4.45-17.14,10.33-33.91,17.61-50.05.77-1.7.63-4.16-1.33-5.09-10.07-4.73-20.75-7.66-31.84-8.65-11.61-1.03-22.6,1.02-34,2.86-5.26.85-11.71,1.85-16.89.15-2.08-.68-2.31-1.69-1.71-3.75.84-2.87,2.11-5.67,3.21-8.45,4.29-10.86,8.98-21.56,14.03-32.08,5.68-11.84,11.82-23.45,18.39-34.82,1.1-1.91.19-5.04-2.22-5.46-25.99-4.56-51.98-9.12-77.97-13.68-3.15-.55-6.31-1.07-9.46-1.66-1.59-.3-4.68-.61-5.4-2.38-.85-2.09,1.37-5.93,2.13-7.88,1.07-2.73,2.19-5.44,3.38-8.12,4.55-10.28,9.89-20.2,15.95-29.67,7.01-10.96,15.01-21.22,23.86-30.75,2.25-2.42.61-6.18-2.63-6.35-25.04-1.26-50.08-2.52-75.12-3.77,1.07,1.86,2.14,3.73,3.21,5.59,14.09-32.26,28.19-64.52,42.28-96.77.81-1.85.53-3.97-1.33-5.09-1.57-.94-4.28-.5-5.09,1.33h0Z"/>
    </g>
    <g>
      <path class="cls-6" d="m1204.06,1979.01c-.36-.34-114.08-121.85-39.34-345.04,63.52-189.66,260.98-289.85,428.46-228.15,167.48,61.7,247.19,263.89,178.04,451.59-56.66,153.8-229.08,267.64-263.41,239.28-8.68-7.18-12.59-26.82-7.29-28.84,60-22.91,167.52-57.25,235.51-213.94,48.56-111.91,14.38-339.85-159.19-403.77-171.07-62.99-341.41,84.53-383.09,203.99-65.94,189.01,35.02,307.98,35.17,308.5,1.33,4.74-20.19,20.76-24.88,16.38Z"/>
      <path class="cls-6" d="m1612.07,1924.75c2.81-6.42-.15-13.97-6.57-16.78l-51.19-22.4c-6.42-2.81-13.97.15-16.78,6.57l-1.27,2.91-17.49-7.65c-6.42-2.81-13.97.15-16.78,6.57l-98.96,226.19c-2.81,6.42.15,13.97,6.57,16.78l17.49,7.65-3.05,6.96c-2.81,6.42.15,13.97,6.57,16.78l51.19,22.4c6.42,2.81,13.97-.15,16.78-6.57l113.49-259.4Z"/>
      <rect class="cls-8" x="1546.32" y="1953.96" width="34.49" height="209.58" rx="12.74" ry="12.74" transform="translate(956.35 -454.11) rotate(23.63)"/>
      <path class="cls-6" d="m1337.31,1823.9c2.7-6.47-.38-13.97-6.85-16.67l-17.62-7.36,2.93-7.01c2.7-6.47-.38-13.97-6.85-16.67l-51.56-21.54c-6.47-2.7-13.97.38-16.67,6.85l-109.13,261.27c-2.7,6.47.38,13.97,6.85,16.67l51.56,21.54c6.47,2.7,13.97-.38,16.67-6.85l1.22-2.93,17.62,7.36c6.47,2.7,13.97-.38,16.67-6.85l95.16-227.81Z"/>
      <rect class="cls-8" x="1160.6" y="1783.2" width="34.49" height="209.58" rx="12.74" ry="12.74" transform="translate(1537 4084.08) rotate(-157.33)"/>
      <path class="cls-1" d="m1496.68,1398.71c-23.84-2.51-48-.38-71.28,5.18-23.44,5.6-46.02,14.66-67.29,25.91-11.96,6.32-23.52,13.37-34.69,21.01-1.66,1.13-2.4,3.27-1.33,5.09.96,1.64,3.42,2.47,5.09,1.33,19.49-13.32,40.61-25.14,62.25-33.92,10.92-4.43,22.12-8.2,33.53-11.15,11.33-2.93,22.83-5.05,34.15-6.13,13.16-1.26,26.43-1.26,39.58.12,2,.21,3.72-1.86,3.72-3.72,0-2.18-1.71-3.51-3.72-3.72h0Z"/>
      <path class="cls-1" d="m1249.66,1777.01c.7-1.58,1.42-3.16,2.31-4.64.19-.32.38-.63.59-.93.09-.13.2-.26.28-.39.06-.1-.62.73-.16.21.19-.22.38-.44.59-.64.16-.16.95-.81.34-.34-.6.46.15-.08.33-.19.11-.07.23-.12.34-.19.57-.33-.08.15-.35.14.2.01.56-.19.77-.24.13-.03.27-.05.4-.09.68-.17-.47.04-.35.04.69.01,1.37-.06,2.06,0,.18.01.35.04.53.05.22.01-.96-.16-.25-.03.43.08.86.15,1.29.25,5.02,1.09,9.87,3.12,14.65,4.97,2.73,1.05,5.46,2.11,8.17,3.22.38.16-.25-.11-.27-.11.13.05.26.11.38.16.31.13.61.26.92.39.6.26,1.19.51,1.78.77,1.19.52,2.38,1.05,3.56,1.58,3.54,1.58,7.06,3.19,10.58,4.82,1.82.85,4.01.51,5.09-1.33.94-1.61.49-4.23-1.33-5.09-8.35-3.88-16.74-7.65-25.33-10.98-5.2-2.02-10.46-4.26-15.91-5.51-3.5-.8-7.4-1.14-10.6.82-3.45,2.11-5.26,5.98-6.84,9.53-.81,1.83-.53,3.99,1.33,5.09,1.58.93,4.27.51,5.09-1.33h0Z"/>
      <path class="cls-1" d="m1483.89,2040.59c2.28-5.25,4.58-10.5,6.87-15.75,5.51-12.58,11.04-25.15,16.61-37.7,6.78-15.3,13.61-30.58,20.54-45.82,3.25-7.16,6.53-14.31,9.84-21.44,2.94-6.33,5.78-12.76,8.99-18.97.48-.93.98-1.84,1.55-2.71.15-.23.31-.46.47-.68.35-.49-.57.57.1-.1.23-.23,1.09-1.29.46-.51.07-.09.26-.15.37-.21.34-.18-1.02.26-.48.21.16-.01.37-.08.53-.13.57-.19-1.03.03-.4.06.1,0,.21-.02.31-.02.31,0,.62,0,.93.02.15,0,.3.03.45.04.5.02-.28.15-.42-.06.07.1.88.15.99.17.72.14,1.44.32,2.15.52,1.52.43,3.02.95,4.5,1.51.74.28,1.48.58,2.22.88.82.33-.55-.24-.02-.01.2.09.41.18.61.26.41.18.81.36,1.22.54,1.52.68,3.02,1.38,4.51,2.11,2.11,1.03,4.2,2.11,6.27,3.23.31.17.62.34.93.51,1.75.98,4.06.42,5.09-1.33,1-1.71.42-4.1-1.33-5.09-3.92-2.2-7.96-4.2-12.07-6.02-3.3-1.46-6.67-2.88-10.16-3.83-2.65-.72-5.82-1.4-8.5-.45-4.31,1.53-6.36,6.62-8.17,10.43-1.43,3.01-2.87,6.01-4.29,9.03-3.25,6.91-6.45,13.84-9.62,20.78-7.07,15.46-14.03,30.98-20.93,46.51-5.96,13.4-11.87,26.81-17.76,40.24-2.88,6.58-5.77,13.15-8.62,19.75-.04.09-.08.18-.12.27-.8,1.84-.54,3.99,1.33,5.09,1.57.92,4.28.52,5.09-1.33h0Z"/>
      <path class="cls-1" d="m1305.51,1808.58c-9.43,21.29-18.85,42.59-28.28,63.88-9.43,21.29-18.85,42.59-28.28,63.88-5.32,12.02-10.64,24.03-15.96,36.05-.81,1.83-.53,3.99,1.33,5.09,1.58.93,4.27.51,5.09-1.33,9.43-21.29,18.85-42.59,28.28-63.88,9.43-21.29,18.85-42.59,28.28-63.88,5.32-12.02,10.64-24.03,15.96-36.05.81-1.83.53-3.99-1.33-5.09-1.58-.93-4.27-.51-5.09,1.33h0Z"/>
    </g>
    <g>
      <g>
        <path class="cls-1" d="m3210.89,1641.73l-161.48,216.41c-19.74,26.45-57.53,31.94-83.97,12.21l-384.72-287.08c-26.45-19.74-31.94-57.53-12.21-83.97l161.48-216.41c19.74-26.45,57.53-31.94,83.97-12.21l384.72,287.08c26.45,19.74,31.94,57.53,12.21,83.97Z"/>
        <path class="cls-3" d="m3001.24,1885.33c-13.13,0-26.35-4.07-37.66-12.5l-384.72-287.08c-27.89-20.81-33.64-60.42-12.84-88.31l161.48-216.41c10.04-13.46,24.78-22.2,41.51-24.64,16.73-2.43,33.35,1.76,46.8,11.8l384.72,287.08c27.89,20.81,33.64,60.42,12.84,88.31l-161.48,216.41c-12.37,16.58-31.4,25.34-50.65,25.34Zm-222.96-623.41c-2.78,0-5.58.2-8.38.61-15.09,2.19-28.38,10.08-37.43,22.21l-161.48,216.41c-18.77,25.15-13.57,60.87,11.58,79.64l384.72,287.08c25.15,18.76,60.87,13.57,79.64-11.58l161.48-216.41,2.48,1.85-2.48-1.85c18.77-25.15,13.57-60.87-11.58-79.64l-384.72-287.08c-9.88-7.37-21.65-11.24-33.83-11.24Z"/>
      </g>
      <circle class="cls-9" cx="2651.08" cy="1526.59" r="42.5" transform="translate(-362.35 2053.83) rotate(-39.86)"/>
      <path class="cls-9" d="m1988.2,1203.13c-8.49,21.29-7.34,44.33,3.08,64.7,10.59,20.71,29,36.71,47.83,49.75,21.83,15.11,45.93,26.68,70.37,36.9,23.54,9.84,47.72,18.15,72.14,25.53,22.86,6.91,45.88,13.26,68.71,20.25,27.2,8.34,54.3,16.99,81.36,25.77,57.49,18.66,114.78,37.91,172.1,57.07,44.36,14.82,88.67,29.95,133.45,43.5,3.56,1.08,7.13,2.14,10.7,3.17,7.23,2.09,12.74-4.72,11.43-11.43-2.42-12.38-10.54-22.72-19.78-30.9-8.97-7.94-18.95-14.82-28.6-21.91-19.26-14.15-38.68-28.08-58.24-41.81-40.52-28.44-81.6-56.07-123.21-82.9-39.83-25.68-80.13-50.66-121.08-74.52-34.6-20.17-69.65-39.67-105.65-57.24-25.21-12.31-51.28-24.69-78.52-31.84-2.3-.6-4.61-1.15-6.94-1.64-4.91-1.02-10.04,1.43-11.43,6.49-1.27,4.61,1.55,10.41,6.49,11.43,10.78,2.24,21.26,5.81,31.54,9.71,3.05,1.16,6.08,2.35,9.1,3.58,1.58.64,3.16,1.3,4.74,1.96.55.23,1.97.84-.23-.1.38.16.76.32,1.15.49.97.41,1.93.83,2.9,1.24,7.09,3.07,14.11,6.27,21.09,9.57,34.72,16.39,68.47,34.85,101.77,53.94,39.95,22.91,79.25,46.96,118.09,71.69,41.33,26.32,82.15,53.46,122.42,81.36,19.62,13.6,39.12,27.38,58.46,41.38,9.4,6.81,18.77,13.66,28.09,20.58,4.87,3.61,8.44,6.18,12.65,9.72,2.17,1.82,4.28,3.72,6.29,5.72.93.93,1.84,1.88,2.72,2.86.44.49.85.99,1.29,1.48,1.95,2.2-.76-1.19.95,1.18,3.54,4.91,4.94,7.77,6.04,13.43,3.81-3.81,7.62-7.62,11.43-11.43-41.32-11.97-82.08-25.98-122.88-39.58-56.23-18.74-112.41-37.68-168.74-56.13-51.43-16.85-102.96-33.59-155.04-48.33-23.04-6.52-45.9-13.68-68.35-22.02-6.08-2.26-12.14-4.61-18.15-7.05-1.51-.62-3.02-1.24-4.53-1.86-.22-.09-2.73-1.15-.8-.33-.5-.21-1-.43-1.51-.64-3.26-1.39-6.5-2.81-9.73-4.27-11.85-5.35-23.51-11.15-34.8-17.63-5.47-3.14-10.86-6.44-16.11-9.94-2.29-1.52-4.56-3.09-6.79-4.69-1.2-.86-2.39-1.73-3.58-2.62-.59-.44-1.17-.88-1.75-1.32,1.88,1.43-.65-.51-.98-.78-8.62-6.85-16.37-14.45-23.39-22.92-1.42-1.72,1.18,1.65-.12-.15-.37-.52-.76-1.02-1.14-1.54-.74-1.02-1.46-2.06-2.16-3.11-1.49-2.23-2.88-4.52-4.15-6.88-1.06-1.96-1.99-3.96-2.91-5.98,1.21,2.63-.37-.99-.62-1.66-.48-1.3-.92-2.62-1.31-3.94-.62-2.08-1.15-4.19-1.56-6.32-.14-.74-.67-4.7-.33-1.63-.15-1.38-.31-2.76-.39-4.16-.15-2.42-.15-4.84-.02-7.26.05-1.03.13-2.05.24-3.08.06-.62.14-1.24.21-1.86-.35,2.88.04-.08.15-.66.94-5.3,2.51-10.45,4.5-15.45,1.86-4.66-2.03-10.21-6.49-11.43-5.29-1.45-9.56,1.81-11.43,6.49h0Z"/>
    </g>
  </g>
</svg>