<?xml version="1.0" encoding="UTF-8"?>
<svg id="Layer_2" data-name="Layer 2" xmlns="http://www.w3.org/2000/svg" viewBox="0 0 738.28 1500">
  <g id="Layer_1-2" data-name="Layer 1">
    <g>
      <path d="m582.12,1453.12h-24.65c-19.71-2.92-106.38-7.72-138.99-46.51-21.08-25.08-22.79-98.91-22.72-125.26l8.35-451.15c187.2-18.94,334.17-188.03,334.17-393.22S692.94,16.02,692.48,13.89c-1.74-8.1-8.9-13.89-17.19-13.89H62.99c-8.29,0-15.45,5.79-17.19,13.89C45.34,16.02,0,229.54,0,436.99s146.96,374.28,334.17,393.22l8.35,451.15c.09,26.34-1.65,100.19-22.71,125.26-32.59,38.78-119.29,43.59-139,46.51h-24.64c-24.66,0-44.84,12.66-44.84,28.13,0,10.3,10.08,18.75,22.42,18.75h470.79c12.34,0,22.42-8.45,22.42-18.75-.01-15.47-20.2-28.13-44.85-28.13Z"/>
      <path d="m670.9,436.99c0-35.16-.65-59.71-4.69-105.5l-.71-8.01H72.34l-.71,8.01c-4.05,45.76-4.25,70.32-4.25,105.5,0,180.67,135.36,327.66,301.76,327.66s301.76-146.99,301.76-327.66Z"/>
    </g>
  </g>
</svg>